<?xml version="1.0" standalone="no"?>
<!DOCTYPE svg PUBLIC "-//W3C//DTD SVG 20010904//EN"
 "http://www.w3.org/TR/2001/REC-SVG-20010904/DTD/svg10.dtd">
<svg version="1.0" xmlns="http://www.w3.org/2000/svg"
 width="80px" height="40px" viewBox="0 0 240.000000 116.000000"
 preserveAspectRatio="xMidYMid meet">

<g transform="translate(0.000000,116.000000) scale(0.100000,-0.100000)"
fill="pink" stroke="none">
<path d="M370 794 c-31 -9 -44 -48 -50 -144 -5 -91 -6 -95 -27 -92 -67 9 -133
-80 -111 -151 23 -75 102 -110 158 -68 37 26 47 26 69 -1 40 -48 106 13 132
122 15 66 21 74 47 66 16 -5 21 -19 26 -73 7 -71 26 -117 51 -127 26 -10 31
-8 65 21 l32 26 25 -27 c39 -42 76 -29 124 44 l16 25 17 -33 c47 -91 154 -75
179 29 8 31 50 54 65 36 6 -7 14 -25 17 -40 10 -37 58 -87 85 -87 36 0 77 27
94 64 9 19 16 38 16 44 0 10 23 22 44 22 7 0 18 -18 25 -40 29 -97 127 -120
174 -40 10 15 17 35 17 44 0 17 38 38 53 29 4 -2 13 -19 21 -37 19 -44 65 -86
96 -86 14 0 36 7 49 16 21 15 27 15 75 0 55 -18 88 -15 138 10 38 19 71 69 63
95 -7 20 -8 20 -25 -8 -31 -51 -67 -73 -121 -73 -53 0 -65 17 -31 42 84 62 80
168 -6 168 -66 -1 -95 -41 -91 -129 3 -69 -3 -81 -41 -81 -33 0 -57 21 -77 67
-13 32 -12 36 13 68 33 44 64 143 64 205 0 63 -33 107 -72 97 -45 -12 -72 -83
-70 -186 0 -47 2 -95 4 -106 5 -32 -29 -30 -61 4 -16 17 -36 31 -45 31 -26 0
-19 -50 11 -82 26 -28 26 -28 10 -63 -14 -30 -22 -35 -51 -35 -72 0 -84 74
-36 218 47 140 39 219 -22 210 -39 -5 -59 -63 -63 -183 -2 -58 -7 -110 -10
-115 -11 -17 -33 -11 -52 14 -10 13 -28 27 -40 31 -20 6 -23 3 -23 -23 0 -16
9 -37 20 -47 24 -22 26 -53 4 -83 -19 -28 -65 -29 -89 -2 -28 30 -31 108 -7
156 23 47 52 158 52 202 0 22 -7 36 -24 47 -61 40 -95 -39 -100 -229 -1 -46
-5 -61 -20 -70 -14 -9 -20 -8 -24 3 -9 27 -51 61 -66 55 -24 -9 -19 -52 9 -80
19 -19 24 -32 19 -47 -17 -58 -80 -78 -109 -34 -29 45 -29 81 4 175 41 119 50
196 26 222 -23 26 -37 25 -63 -2 -28 -31 -41 -95 -42 -208 0 -79 -4 -104 -24
-146 -46 -98 -86 -71 -86 59 0 69 -2 78 -17 75 -14 -3 -19 -18 -25 -72 -7 -75
-35 -119 -73 -114 -18 3 -20 11 -23 88 -3 89 -9 100 -52 100 -14 0 -36 7 -48
16 -38 26 -49 12 -54 -63 -7 -118 -54 -178 -93 -119 -15 23 -15 30 5 93 39
125 39 254 -1 294 -19 19 -22 20 -49 13z m1426 -44 c29 -29 -18 -230 -53 -230
-12 0 -14 19 -12 109 2 60 6 108 10 105 4 -2 9 3 13 11 6 17 27 20 42 5z
m-1382 -22 c19 -72 -12 -250 -40 -227 -26 21 -36 188 -14 229 14 27 46 26 54
-2z m582 8 c7 -19 -14 -123 -31 -156 -12 -22 -14 -23 -21 -7 -6 18 1 107 12
154 7 26 32 31 40 9z m261 -43 c-7 -73 -25 -133 -39 -133 -15 0 -6 153 11 173
25 31 34 19 28 -40z m270 0 c-3 -32 -14 -78 -24 -103 -19 -44 -20 -44 -27 -17
-6 25 9 150 20 169 3 4 12 8 21 8 13 0 15 -9 10 -57z m457 -159 c9 -4 16 -18
16 -33 0 -34 -53 -96 -75 -88 -22 9 -19 69 6 101 22 27 28 30 53 20z m-1649
-47 c29 -70 29 -84 0 -112 -35 -32 -65 -32 -99 0 -28 26 -34 70 -15 108 16 30
28 37 67 37 28 0 35 -5 47 -33z"/>
<path d="M763 673 c-18 -7 -16 -38 2 -53 23 -19 59 15 44 41 -10 19 -22 22
-46 12z"/>
</g>
</svg>


